{"title":"Hindi Song Deewangi Deewangi.avi. (Film:Om Shanti Om)","uid":6967069,"size":209592320,"categoryP":"video","categoryS":"music_videos","magnet":"?xt=urn:btih:9811d74f21516b6402941c41141216c4496e6d52&amp;dn=Hindi+Song+Deewangi+Deewangi.avi.+%28Film%3AOm+Shanti+Om%29&amp;tr=udp%3A%2F%2Ftracker.openbittorrent.com%3A80&amp;tr=udp%3A%2F%2Fopen.demonii.com%3A1337&amp;tr=udp%3A%2F%2Ftracker.coppersurfer.tk%3A6969&amp;tr=udp%3A%2F%2Fexodus.desync.com%3A6969","seeders":1,"leechers":0,"uploader":"9xyz","files":1,"time":1326963721,"description":"SONGS\\\\\\\\Deewangi Deewangi                  :Film:Om Shanti Om\nFormat                                   : AVI\nFormat/Info                              : Audio Video Interleave\nFile size                                : 200 MiB\nDuration                                 : 9mn 48s\nOverall bit rate                         : 2 848 Kbps\n\nVideo\nFormat                                   : MPEG-4 Visual\nFormat profile                           : Advanced Simple@L5\nFormat settings, BVOP                    : 2\nFormat settings, Matrix                  : Default (H.263)\nCodec ID                                 : XVID\nCodec ID/Hint                            : XviD\nDuration                                 : 9mn 48s\nBit rate                                 : 2 391 Kbps\nWidth                                    : 1 024 pixels\nHeight                                   : 416 pixels\nDisplay aspect ratio                     : 2.462\nFrame rate                               : 23.976 fps\nColor space                              : YUV\nChroma subsampling                       : 4:2:0\nBit depth                                : 8 bits\nScan type                                : Progressive\nCompression mode                         : Lossy\nBits/(Pixel*Frame)                       : 0.234\nStream size                              : 168 MiB (84%)\nWriting library                          : XviD 1.2.0SMP (UTC 2006-01-08)\n\nAudio\nID                                       : 1\nFormat                                   : AC-3\nFormat/Info                              : Audio Coding 3\nMode extension                           : CM (complete main)\nCodec ID                                 : 2000\nDuration                                 : 9mn 48s\nBit rate mode                            : Constant\nBit rate                                 : 448 Kbps\nChannel(s)                               : 6 channels\nChannel positions                        : Front: L C R, Side: L R, LFE\nSampling rate                            : 48.0 KHz\nBit depth                                : 16 bits\nCompression mode                         : Lossy\nDelay relative to video                  : 11ms\nStream size                              : 31.4 MiB (16%)\nAlignment                                : Split accross interleaves\nInterleave, duration                     : 42 ms (1.00 video frame)\nInterleave, preload duration             : 500 ms\n","torrent":{"xt":"urn:btih:9811d74f21516b6402941c41141216c4496e6d52","amp;dn":"Hindi+Song+Deewangi+Deewangi.avi.+%28Film%3AOm+Shanti+Om%29","amp;tr":["udp%3A%2F%2Ftracker.openbittorrent.com%3A80","udp%3A%2F%2Fopen.demonii.com%3A1337","udp%3A%2F%2Ftracker.coppersurfer.tk%3A6969","udp%3A%2F%2Fexodus.desync.com%3A6969"],"infoHash":"9811d74f21516b6402941c41141216c4496e6d52","infoHashBuffer":{"type":"Buffer","data":[152,17,215,79,33,81,107,100,2,148,28,65,20,18,22,196,73,110,109,82]},"announce":[],"urlList":[]}}